<svg width="200" height="200" viewBox="0 0 200 200" fill="none" xmlns="http://www.w3.org/2000/svg">
	<g clip-path="url(#clip0_392_2)">
		<rect width="200" height="200" rx="20" fill="white" />
		<path
			d="M79.36 159V135.96H100.32C104.373 135.96 107.627 134.893 110.08 132.76C112.533 130.52 113.76 127.48 113.76 123.64C113.76 121.08 113.173 118.893 112 117.08C110.933 115.16 109.387 113.72 107.36 112.76C105.44 111.8 103.093 111.32 100.32 111.32H79.36V89.24H98.88C102.293 89.24 105.12 88.3867 107.36 86.68C109.6 84.9733 110.72 82.3067 110.72 78.68C110.72 75.0533 109.6 72.3867 107.36 70.68C105.12 68.9733 102.293 68.12 98.88 68.12H79.36V45.08H107.84C114.773 45.08 120.8 46.4133 125.92 49.08C131.147 51.64 135.2 55.2133 138.08 59.8C140.96 64.28 142.4 69.4533 142.4 75.32C142.4 83.4267 139.52 90.04 133.76 95.16C128 100.28 119.573 103.213 108.48 103.96L108.16 92.92C120.213 93.6667 129.44 96.9733 135.84 102.84C142.24 108.707 145.44 116.227 145.44 125.4C145.44 132.013 143.787 137.88 140.48 143C137.173 148.013 132.533 151.96 126.56 154.84C120.693 157.613 113.813 159 105.92 159H79.36ZM53.44 159V45.08H84.8V159H53.44Z"
			fill="black"
		/>
		<line x1="83.9515" y1="37.7678" x2="45.7678" y2="75.9515" stroke="white" stroke-width="5" />
		<line x1="71.2236" y1="37.7678" x2="45.7677" y2="63.2236" stroke="white" stroke-width="5" />
	</g>
	<defs>
		<clipPath id="clip0_392_2">
			<rect width="200" height="200" rx="20" fill="white" />
		</clipPath>
	</defs>
</svg>
